<svg width="460" height="460" viewBox="0 0 460 460" fill="none" xmlns="http://www.w3.org/2000/svg">
<g clip-path="url(#clip0_860_1381)">
<rect width="460" height="460" fill="white"/>
<path d="M71.3701 283V177.312H92.7568V283H71.3701ZM172.298 210.783L152.229 283H131.355L103.377 177.312H126.302L142.928 253.85H143.514L163.289 177.312H181.966L201.741 253.85H202.327L219.026 177.312H241.951L213.899 283H193.025L172.957 210.783H172.298Z" fill="#0038FF"/>
<path d="M287.97 210.783L267.901 283H247.027L219.049 177.312H241.974L258.6 253.85H259.186L278.961 177.312H297.638L317.413 253.85H317.999L334.698 177.312H357.623L329.571 283H308.697L288.629 210.783H287.97ZM368.243 283V177.312H389.63V283H368.243Z" fill="#0038FF"/>
</g>
<defs>
<clipPath id="clip0_860_1381">
<rect width="460" height="460" fill="white"/>
</clipPath>
</defs>
</svg>
