<svg id="Слой_1" data-name="Слой 1" xmlns="http://www.w3.org/2000/svg" viewBox="0 0 382.16 1629.52"><defs><style>.cls-1{fill:none;stroke:#0038ff;stroke-miterlimit:10;stroke-width:3px;}.cls-2{fill:#0038ff;}</style></defs><path class="cls-1" d="M605.5,405.5s70,26.35,36,283.67-83,643.33-80,731.33,6.75,181.19,32,238c28,63,54,109,127,126s83,7,97,21,8,31-28,58-282,148-339,166" transform="translate(-443.81 -403.62)"/><polyline class="cls-1" points="40.69 1589.88 3.69 1627.88 57.36 1625.88"/><rect class="cls-2" x="603.56" y="403.28" width="3.01" height="4.09" rx="1.5" transform="translate(-438.16 415.34) rotate(-68.43)"/><rect class="cls-2" x="481.26" y="1990.69" width="3" height="9.18" rx="1.5" transform="translate(1087.89 -172.97) rotate(44.33)"/><rect class="cls-2" x="497.5" y="2025.56" width="3" height="8.03" rx="1.5" transform="translate(2064.73 1051.56) rotate(87.86)"/></svg>